<?xml version="1.0" encoding="utf-8"?>
<!-- Generator: Adobe Illustrator 26.4.1, SVG Export Plug-In . SVG Version: 6.00 Build 0)  -->
<svg version="1.0" id="图层_1" xmlns="http://www.w3.org/2000/svg" xmlns:xlink="http://www.w3.org/1999/xlink" x="0px" y="0px"
	 width="512px" height="512px" viewBox="0 0 512 512" enable-background="new 0 0 512 512" xml:space="preserve">
<g>
	<rect x="0" y="0" width="512" height="512"/>
</g>
<path fill="#FFFFFF" d="M256,430.3c-96.1,0-174.3-78.2-174.3-174.3S159.9,81.7,256,81.7c96.1,0,174.3,78.2,174.3,174.3
	S352.1,430.3,256,430.3z M256,113.4c-78.6,0-142.6,64-142.6,142.6c0,78.6,64,142.6,142.6,142.6s142.6-64,142.6-142.6
	C398.6,177.4,334.6,113.4,256,113.4z"/>
<path fill="#FFFFFF" d="M323.2,339.1c-4.1,0-8.1-1.5-11.2-4.6l-67.2-67.2c-3-3-4.6-7-4.6-11.2l0-95.1c0-8.7,7.1-15.8,15.8-15.8l0,0
	c8.8,0,15.8,7.1,15.8,15.8l0,88.6l62.5,62.5c6.2,6.2,6.2,16.2,0,22.4C331.3,337.5,327.3,339.1,323.2,339.1z"/>
</svg>
