<?xml version="1.0" encoding="UTF-8"?>
<svg id="a" data-name="图层 1" xmlns="http://www.w3.org/2000/svg" viewBox="0 0 512 512">
  <rect width="512" height="512" style="fill: #fff;"/>
  <g>
    <g>
      <ellipse cx="356.82" cy="180.04" rx="31.66" ry="31.18" style="fill: #9e9e9e;"/>
      <path d="M356.82,148.86c17.48,0,31.66,13.96,31.66,31.18s-14.17,31.18-31.66,31.18-31.66-13.96-31.66-31.18,14.17-31.18,31.66-31.18m0-7.07c-21.36,0-38.73,17.16-38.73,38.25s17.37,38.25,38.73,38.25,38.73-17.16,38.73-38.25-17.37-38.25-38.73-38.25h0Z" style="fill: #9e9e9e;"/>
    </g>
    <g>
      <path d="M339.36,221.33l-31.19-53.73c-4.86-8.43-13.83-8.55-19.96-5-6.13,3.55-9.85,10.93-4.99,19.37l2.92,5.08c-5.51-1.87-11.22-3.3-17.09-4.26l-7.57-13.14-21.22,12.27c-11.98,1.23-23.37,4.43-33.84,9.25l49.99-28.57c-15.6-11.87-30.57-18.12-49.9-18.74v-21.87c0-.62-.62-1.25-1.25-1.25s-1.25,.62-1.25,1.25v21.87c-8.42,.96-21.11,5.31-29.24,9.52-8.18,4.23-17.54,13.6-21.28,19.85l-21.21-10.62c-.78-.37-1.5-.16-1.87,.62s-.16,1.5,.62,1.87l20.59,10.62c-10.6,14.99-13.1,34.36-9.98,52.48l48.5-27.72c-9.96,6.92-18.66,15.48-25.7,25.29l-18.72,10.82,6.56,11.37c-1.08,2.71-2.04,5.47-2.89,8.28-5.04-6.44-13.01-6.28-18.62-3.03-6.13,3.55-9.85,10.93-4.99,19.37l22.21,38.71c11.38,45.89,53.39,79.96,103.48,79.96,58.84,0,106.55-46.98,106.56-104.95,0-20.6-6.04-39.82-16.45-56.03,.15-2.9-.48-5.97-2.2-8.95Z" style="fill: #9e9e9e;"/>
      <path d="M205.24,120.75c.62,0,1.25,.62,1.25,1.25v21.87c19.34,.62,34.31,6.87,49.9,18.74l-49.99,28.57c10.47-4.82,21.86-8.01,33.84-9.25l21.22-12.27,7.57,13.14c5.87,.96,11.59,2.39,17.09,4.26l-2.92-5.08c-4.86-8.43-1.14-15.82,4.99-19.37,2.38-1.38,5.19-2.2,8.03-2.2,4.46,0,8.96,2.05,11.94,7.2l31.19,53.73c1.72,2.98,2.35,6.06,2.2,8.95,10.41,16.21,16.45,35.42,16.45,56.03,0,57.97-47.71,104.95-106.55,104.95h-.02c-50.09,0-92.1-34.07-103.48-79.96l-22.21-38.71c-4.86-8.43-1.14-15.82,4.99-19.37,2.38-1.37,5.18-2.2,8-2.2,3.84,0,7.71,1.52,10.62,5.23,.85-2.81,1.81-5.57,2.89-8.28l-6.56-11.37,18.72-10.82c7.04-9.8,15.74-18.37,25.7-25.29l-48.5,27.72c-3.12-18.12-.62-37.48,9.98-52.48l-20.59-10.62c-.79-.38-1-1.09-.62-1.87,.25-.54,.66-.8,1.15-.8,.23,0,.47,.06,.72,.18l21.21,10.62c3.74-6.25,13.1-15.62,21.28-19.85,8.13-4.2,20.82-8.56,29.24-9.52v-21.87c0-.62,.62-1.25,1.25-1.25m0-7.07c-4.51,0-8.32,3.81-8.32,8.32v15.92c-8.84,1.96-18.84,5.78-25.42,9.18-7.4,3.82-15.13,10.83-20.25,17.11l-15.83-7.93s-.08-.04-.12-.06c-1.21-.58-2.48-.87-3.77-.87-3.24,0-6.13,1.86-7.54,4.85-2.01,4.24-.32,9.14,3.83,11.21l13.76,7.1c-7.69,14.45-10.16,32.21-6.94,50.88,.39,2.27,1.87,4.21,3.95,5.2,.09,.04,.18,.08,.27,.12-.48,1.76-.29,3.71,.69,5.41l2.34,4.05c-1.03-.16-2.09-.23-3.16-.23-3.99,0-7.98,1.09-11.54,3.15-4.74,2.74-8.22,6.93-9.8,11.78-1.27,3.9-1.91,10.06,2.23,17.24l21.72,37.86c6.08,23.56,20.07,44.87,39.48,60.08,20.26,15.88,44.68,24.28,70.62,24.28,30.34,0,58.86-11.64,80.32-32.77,21.48-21.16,33.32-49.3,33.32-79.25,0-20.57-5.69-40.61-16.46-58.09-.2-3.63-1.26-7.19-3.13-10.43l-31.2-53.75c-3.92-6.81-10.51-10.72-18.05-10.72-4,0-8,1.09-11.57,3.15-4.74,2.74-8.22,6.93-9.8,11.78-.7,2.14-1.2,4.95-.84,8.24-.17-.03-.33-.07-.5-.1l-5.93-10.29c-.91-1.58-2.39-2.74-4.13-3.25,.09-2.3-.95-4.5-2.78-5.89-15.45-11.76-30.23-17.99-47.12-19.73v-15.25c0-4.51-3.81-8.32-8.32-8.32h0Z" style="fill: #9e9e9e;"/>
    </g>
  </g>
  <g>
    <g>
      <g>
        <path d="M207.25,143.29v-21.6c0-.62-.61-1.23-1.23-1.23h0c-.61,0-1.23,.62-1.23,1.23v21.6c-8.29,.95-20.78,5.25-28.79,9.4-8.06,4.18-17.27,13.44-20.95,19.61l-20.88-10.49c-.77-.37-1.48-.16-1.84,.62h0c-.37,.78-.16,1.48,.61,1.85l20.27,10.49c-10.44,14.81-12.9,33.95-9.83,51.85l113-64.81c-15.35-11.73-30.09-17.9-49.13-18.52Z" style="fill: #3ddc84;"/>
        <path d="M206.02,120.45c.61,0,1.23,.62,1.23,1.23v21.6c19.04,.62,33.78,6.79,49.13,18.52l-113,64.81c-3.07-17.9-.61-37.03,9.83-51.85l-20.27-10.49c-.77-.37-.98-1.07-.61-1.85,.25-.53,.65-.8,1.13-.8,.22,0,.47,.06,.71,.18l20.88,10.49c3.68-6.17,12.9-15.43,20.95-19.61,8.01-4.15,20.5-8.45,28.79-9.4v-21.6c0-.62,.61-1.23,1.23-1.23m0-7.07c-4.5,0-8.3,3.8-8.3,8.31v15.67c-8.7,1.95-18.51,5.71-24.97,9.06-7.27,3.77-14.86,10.66-19.91,16.86l-15.49-7.78s-.08-.04-.12-.06c-1.21-.58-2.48-.87-3.77-.87-3.23,0-6.12,1.86-7.53,4.85-2.03,4.3-.38,9.08,3.82,11.18l13.47,6.97c-7.55,14.28-9.97,31.81-6.81,50.25,.39,2.28,1.87,4.22,3.96,5.2,.96,.45,1.99,.67,3.01,.67,1.22,0,2.43-.31,3.52-.94l113-64.81c2.05-1.18,3.38-3.31,3.54-5.67,.16-2.36-.88-4.65-2.76-6.09-15.2-11.61-29.74-17.77-46.35-19.5v-15c0-4.5-3.8-8.31-8.3-8.31h0Z" style="fill: #fff;"/>
      </g>
      <g>
        <polygon points="314.16 260.66 200.17 326.8 147.39 234.91 261.37 168.77 314.16 260.66" style="fill: #3ddc84;"/>
        <path d="M261.37,168.77l52.79,91.89-113.98,66.14-52.79-91.89,113.98-66.14m0-7.07c-1.24,0-2.46,.32-3.55,.96l-113.98,66.14c-3.37,1.95-4.52,6.26-2.58,9.64l52.79,91.89c.94,1.63,2.49,2.82,4.3,3.31,.6,.16,1.22,.24,1.83,.24,1.24,0,2.46-.32,3.55-.96l113.98-66.14c3.37-1.95,4.52-6.26,2.58-9.64l-52.79-91.89c-.94-1.63-2.49-2.82-4.3-3.31-.6-.16-1.22-.24-1.83-.24h0Z" style="fill: #fff;"/>
      </g>
      <ellipse cx="165.17" cy="192.34" rx="7.78" ry="7.82" style="fill: #fff;"/>
      <ellipse cx="213.9" cy="164.16" rx="7.78" ry="7.82" style="fill: #fff;"/>
    </g>
    <g>
      <g>
        <path d="M251.5,180.32c-57.93,0-104.88,46.44-104.88,103.7,0,57.26,46.96,103.68,104.88,103.69,57.93,0,104.9-46.41,104.91-103.69,0-57.27-46.98-103.7-104.91-103.69v-.02Z" style="fill: #4285f4;"/>
        <path d="M251.5,180.32v.02h.02c57.92,0,104.89,46.42,104.9,103.69,0,57.27-46.97,103.69-104.9,103.69h-.02c-57.92,0-104.87-46.43-104.88-103.69,0-57.27,46.95-103.69,104.88-103.7m0-7.07h0c-29.89,0-57.99,11.52-79.13,32.42-21.16,20.93-32.82,48.75-32.82,78.35,0,29.6,11.66,57.42,32.82,78.34,21.14,20.9,49.24,32.41,79.13,32.42,29.91,0,58.01-11.51,79.16-32.41,21.17-20.92,32.82-48.75,32.83-78.35,0-29.6-11.66-57.43-32.83-78.35-21.03-20.79-48.95-32.29-78.66-32.41-.16-.01-.33-.02-.5-.02h0Z" style="fill: #fff;"/>
      </g>
      <g>
        <path d="M324.09,179.03c0,17.01,13.95,30.81,31.17,30.81,17.21,0,31.17-13.79,31.17-30.81,0-17.01-13.95-30.81-31.17-30.81-17.21,0-31.17,13.79-31.17,30.81Z" style="fill: #4285f4;"/>
        <path d="M355.25,148.23c17.21,0,31.17,13.79,31.17,30.81s-13.95,30.81-31.17,30.81-31.17-13.79-31.17-30.81c0-17.01,13.95-30.81,31.17-30.81m0-7.07c-21.09,0-38.24,16.99-38.24,37.88,0,20.89,17.15,37.88,38.24,37.88s38.24-16.99,38.24-37.88-17.15-37.88-38.24-37.88h0Z" style="fill: #fff;"/>
      </g>
      <ellipse cx="293.53" cy="240.19" rx="30.26" ry="30.86" style="fill: #fff;"/>
      <g>
        <path d="M180.68,264.37h9.86v58.88h32.43v8.89h-42.28v-67.77Z" style="fill: #fff;"/>
        <path d="M261.11,284.09h9.49v48.05h-8.38c-.12-3.09-.34-5.68-.65-7.78-1.54,2.96-3.65,5.17-6.36,6.62-2.7,1.45-5.71,2.18-9.03,2.18-5.16,0-9.27-1.7-12.34-5.09-3.07-3.39-4.61-8.3-4.61-14.72v-29.26h9.4v26.48c0,4.38,.83,7.79,2.49,10.23,1.66,2.44,4.18,3.66,7.55,3.66s6.37-1.23,8.8-3.7c2.42-2.47,3.64-5.96,3.64-10.46v-26.2Z" style="fill: #fff;"/>
        <path d="M316.97,288.07c3.53,3.4,5.3,8.27,5.3,14.63v29.44h-8.2c-.12-2.78-.28-4.75-.46-5.93-2.95,4.63-7.68,6.94-14.19,6.94-3.19,0-6.13-.59-8.8-1.76-2.67-1.17-4.81-2.87-6.4-5.09-1.6-2.22-2.4-4.91-2.4-8.05,0-4.75,1.93-8.52,5.8-11.29,3.87-2.78,8.81-4.17,14.83-4.17,3.38,0,6.85,.46,10.41,1.39v-.18c0-4.38-.86-7.61-2.58-9.67-1.72-2.07-4.3-3.1-7.74-3.1-2.76,0-5.08,.6-6.96,1.8-1.87,1.2-3.45,2.95-4.74,5.23l-7-4.07c1.54-3.39,4.02-6.11,7.46-8.15,3.44-2.04,7.37-3.05,11.79-3.05,5.71,0,10.33,1.7,13.86,5.09Zm-4.1,23.33c-3.69-.93-6.91-1.39-9.67-1.39-3.68,0-6.54,.71-8.57,2.13-2.03,1.42-3.04,3.4-3.04,5.92,0,2.28,.83,4.09,2.49,5.42s3.84,1.99,6.54,1.99c3.38,0,6.26-.97,8.66-2.92,2.39-1.94,3.59-4.64,3.59-8.1v-3.06Z" style="fill: #fff;"/>
      </g>
    </g>
    <g>
      <g>
        <path d="M307.35,166.74l30.71,53.08c4.79,8.33,1.13,17.48-4.91,20.99h0c-6.04,3.5-14.86,2.16-19.65-6.17l-30.71-53.7c-4.79-8.33-1.13-15.63,4.91-19.13h0c6.04-3.51,14.87-3.39,19.65,4.94Z" style="fill: #3ddc84;"/>
        <path d="M295.6,159.63c4.39,0,8.82,2.02,11.75,7.12l30.71,53.08c4.79,8.33,1.13,17.48-4.91,20.99-2.03,1.18-4.38,1.81-6.78,1.81-4.74,0-9.69-2.45-12.87-7.98l-30.71-53.7c-4.79-8.33-1.13-15.63,4.91-19.13,2.35-1.36,5.11-2.18,7.9-2.18m0-7.07h0c-3.96,0-7.92,1.08-11.45,3.13-8.95,5.2-14.4,16.75-7.5,28.77l30.7,53.69c4.15,7.23,11.26,11.54,19.01,11.54,3.64,0,7.21-.96,10.33-2.76,9.05-5.25,14.49-18.45,7.5-30.63l-30.72-53.1c-3.88-6.76-10.4-10.65-17.87-10.65h0Z" style="fill: #fff;"/>
      </g>
      <g>
        <path d="M152.32,256.27l30.71,53.08c4.79,8.33,1.13,17.48-4.91,20.99h0c-6.04,3.5-14.86,2.16-19.65-6.17l-30.71-53.7c-4.79-8.33-1.13-15.63,4.91-19.13h0c6.04-3.51,14.87-3.39,19.65,4.94Z" style="fill: #3ddc84;"/>
        <path d="M140.57,249.15c4.39,0,8.82,2.02,11.75,7.12l30.71,53.08c4.79,8.33,1.13,17.48-4.91,20.99-2.03,1.18-4.38,1.81-6.78,1.81-4.74,0-9.69-2.45-12.87-7.98l-30.71-53.7c-4.79-8.33-1.13-15.63,4.91-19.13,2.35-1.36,5.11-2.18,7.9-2.18m0-7.07h0c-3.96,0-7.92,1.08-11.45,3.13-8.95,5.2-14.4,16.75-7.5,28.77l30.7,53.69c4.15,7.23,11.26,11.54,19.01,11.54,3.64,0,7.21-.96,10.33-2.76,9.05-5.25,14.49-18.45,7.5-30.63l-30.72-53.1c-3.88-6.76-10.4-10.65-17.87-10.65h0Z" style="fill: #fff;"/>
      </g>
    </g>
  </g>
  <g>
    <path d="M136.24,406.56c-17.77,0-31.54-5.32-41.3-15.96-9.76-10.64-14.64-25.5-14.64-44.6,0-9.16,1.14-18.22,3.43-27.17,2.29-8.94,3.43-18.22,3.43-27.82,0-6.22-2.26-11.1-6.79-14.65-4.53-3.54-10.09-6.03-16.68-7.45-6.6-1.42-13.06-2.13-19.38-2.13v-24.55c4.58,0,9.35-.52,14.31-1.55,4.96-1.04,9.62-2.59,13.98-4.66,4.36-2.07,7.88-4.64,10.55-7.69,2.67-3.05,4.01-6.49,4.01-10.31,0-10.04-1.15-19.42-3.43-28.15-2.29-8.73-3.43-17.67-3.43-26.84,0-18.44,4.88-32.65,14.64-42.63,9.76-9.98,23.52-14.97,41.3-14.97,6.11,0,11.18,.3,15.21,.9,4.03,.6,7.79,1.39,11.29,2.37l-3.43,23.08c-3.71-.54-7.25-.98-10.63-1.31-3.38-.33-6.54-.49-9.49-.49-10.03,0-17.66,2.89-22.9,8.67-5.23,5.78-7.85,13.91-7.85,24.38,0,9.49,1.25,18.55,3.76,27.17,2.51,8.62,3.76,17.67,3.76,27.17,0,11.02-3.76,19.56-11.29,25.61-7.52,6.06-18.05,9.19-31.57,9.41v4.25c13.52,.22,24.04,3.47,31.57,9.74,7.52,6.28,11.29,14.7,11.29,25.29,0,9.93-1.25,19.2-3.76,27.82-2.51,8.62-3.76,17.46-3.76,26.51,0,11.46,2.62,20.32,7.85,26.59,5.23,6.27,12.86,9.41,22.9,9.41,2.94,0,6.11-.19,9.49-.57,3.38-.38,6.92-.79,10.63-1.23l3.43,23.08c-3.49,.98-7.25,1.77-11.29,2.37-4.04,.6-9.11,.9-15.21,.9Z" style="fill: #073042;"/>
    <path d="M375.76,406.56c-6,0-11.07-.3-15.21-.9-4.15-.6-7.91-1.39-11.29-2.37l3.27-23.08c3.71,.54,7.28,.98,10.71,1.31,3.44,.33,6.62,.49,9.57,.49,9.92,0,17.5-3.14,22.73-9.41,5.23-6.27,7.85-15.14,7.85-26.59,0-9.06-1.25-17.89-3.76-26.51-2.51-8.62-3.76-17.89-3.76-27.82,0-10.58,3.76-19.01,11.29-25.29,7.52-6.27,18.04-9.52,31.57-9.74v-4.25c-13.52-.22-24.04-3.35-31.57-9.41-7.52-6.06-11.29-14.59-11.29-25.61,0-9.49,1.25-18.55,3.76-27.17,2.51-8.62,3.76-17.67,3.76-27.17,0-10.47-2.62-18.6-7.85-24.38-5.23-5.78-12.81-8.67-22.73-8.67-2.94,0-6.13,.16-9.57,.49-3.43,.33-7.01,.76-10.71,1.31l-3.27-23.08c3.38-.98,7.14-1.77,11.29-2.37,4.14-.6,9.21-.9,15.21-.9,17.77,0,31.54,4.99,41.3,14.97,9.76,9.98,14.64,24.2,14.64,42.63,0,9.16-1.15,18.11-3.44,26.84-2.29,8.73-3.44,18.11-3.44,28.15,0,3.82,1.33,7.26,4.01,10.31,2.67,3.06,6.16,5.62,10.47,7.69,4.31,2.07,8.97,3.63,13.98,4.66,5.01,1.04,9.81,1.55,14.39,1.55v24.55c-6.44,0-12.95,.71-19.54,2.13-6.6,1.42-12.13,3.9-16.6,7.45-4.47,3.55-6.71,8.43-6.71,14.65,0,9.6,1.15,18.88,3.44,27.82,2.29,8.95,3.44,18,3.44,27.17,0,19.09-4.88,33.96-14.64,44.6-9.76,10.64-23.53,15.96-41.3,15.96Z" style="fill: #073042;"/>
  </g>
</svg>